mtllib ALLEX_Chest_Light.mtl
v 0.13281085835895823 -0.018447583121086186 0.1206318416672047
v 0.13235867938240276 -0.01905646796140803 0.11937112993740223
v 0.1316299500997431 -0.01747333991074962 0.11654993229363692
v 0.13281085835895823 -0.018447583121086186 0.1206318416672047
v 0.13268421040372402 -0.01947500702852878 0.12054878807439268
v 0.1324965425481306 -0.019356997455662883 0.11990893361284888
v 0.1324965425481306 -0.019356997455662883 0.11990893361284888
v 0.13235867938240276 -0.01905646796140803 0.11937112993740223
v 0.13281085835895823 -0.018447583121086186 0.1206318416672047
v 0.13306989157438665 -0.01615415268378495 0.12080203057909683
v 0.1316299500997431 -0.01747333991074962 0.11654993229363692
v 0.13158598952636602 -0.01664871294897452 0.11615836123011641
v 0.13306989157438665 -0.01615415268378495 0.12080203057909683
v 0.13281085835895823 -0.018447583121086186 0.1206318416672047
v 0.1316299500997431 -0.01747333991074962 0.11654993229363692
v 0.13158598952636602 -0.01664871294897452 0.11615836123011641
v 0.13180846268146418 -0.014483802529679513 0.11630408267258469
v 0.13306989157438665 -0.01615415268378495 0.12080203057909683
v 0.13180846268146418 -0.014483802529679513 0.11630408267258469
v 0.13324741233477155 -0.014348288263904552 0.1209181881163523
v 0.13306989157438665 -0.01615415268378495 0.12080203057909683
v 0.1319848848089844 -0.012528440116858497 0.11641893558331334
v 0.1321360841569863 -0.010564772154021407 0.11651656132037219
v 0.13344278587920755 -0.012066234208064075 0.12104634669177544
v 0.1321360841569863 -0.010564772154021407 0.11651656132037219
v 0.13357414880048601 -0.010252562056184411 0.12113257411286321
v 0.13344278587920755 -0.012066234208064075 0.12104634669177544
v 0.1323551393431721 -0.00676715739921202 0.1166568582630711
v 0.13379183069559097 -0.006155879789916663 0.12127548793801063
v 0.13370433679495086 -0.008071180726988425 0.12121821407054417
v 0.13379183069559097 -0.006155879789916663 0.12127548793801063
v 0.1323551393431721 -0.00676715739921202 0.1166568582630711
v 0.13243160113879604 -0.004772532689756859 0.1167054498791486
v 0.13385988489804213 -0.0041057116551243555 0.12132019619208728
v 0.13243160113879604 -0.004772532689756859 0.1167054498791486
v 0.1324778505306412 -0.0029670278051108223 0.11673470097917077
v 0.1339143892951622 -2.2712197646680355e-12 0.12135601620111286
v 0.13390076319588218 -0.0020539206049870196 0.12134705166211285
v 0.13250517902315018 -0.0007700369127764187 0.11675191289405079
v 0.13250517902315018 -0.0007700369127764187 0.11675191289405079
v 0.1325067049021289 0.0005459524056348683 0.11675300389752058
v 0.1339143892951622 -2.2712197646680355e-12 0.12135601620111286
v 0.13250517902315018 -0.0007700369127764187 0.11675191289405079
v 0.13390076319588218 -0.0020539206049870196 0.12134705166211285
v 0.1324778505306412 -0.0029670278051108223 0.11673470097917077
v 0.1324778505306412 -0.0029670278051108223 0.11673470097917077
v 0.13390076319588218 -0.0020539206049870196 0.12134705166211285
v 0.13385988489804213 -0.0041057116551243555 0.12132019619208728
v 0.13243160113879604 -0.004772532689756859 0.1167054498791486
v 0.13385988489804213 -0.0041057116551243555 0.12132019619208728
v 0.13379183069559097 -0.006155879789916663 0.12127548793801063
v 0.1323551393431721 -0.00676715739921202 0.1166568582630711
v 0.13370433679495086 -0.008071180726988425 0.12121821407054417
v 0.132261908137572 -0.008592135837486858 0.11659731846532123
v 0.132261908137572 -0.008592135837486858 0.11659731846532123
v 0.13370433679495086 -0.008071180726988425 0.12121821407054417
v 0.13357414880048601 -0.010252562056184411 0.12113257411286321
v 0.132261908137572 -0.008592135837486858 0.11659731846532123
v 0.13357414880048601 -0.010252562056184411 0.12113257411286321
v 0.1321360841569863 -0.010564772154021407 0.11651656132037219
v 0.1319848848089844 -0.012528440116858497 0.11641893558331334
v 0.13344278587920755 -0.012066234208064075 0.12104634669177544
v 0.13324741233477155 -0.014348288263904552 0.1209181881163523
v 0.1319848848089844 -0.012528440116858497 0.11641893558331334
v 0.13324741233477155 -0.014348288263904552 0.1209181881163523
v 0.13180846268146418 -0.014483802529679513 0.11630408267258469
v 0.13295343649073033 0.01722387395651781 0.1207253322722312
v 0.13253169879980042 0.019421856849002328 0.12003506276923032
v 0.1326792207794636 0.0194706411073009 0.12053130913069138
v 0.1326792207794636 0.0194706411073009 0.12053130913069138
v 0.13268486653168488 0.019470034570406858 0.12054920006171693
v 0.13295343649073033 0.01722387395651781 0.1207253322722312
v 0.13167485671808699 0.01754272162791226 0.11671159917143287
v 0.13253169879980042 0.019421856849002328 0.12003506276923032
v 0.13295343649073033 0.01722387395651781 0.1207253322722312
v 0.1315725007561941 0.01679417499201641 0.11616129854715046
v 0.13167485671808699 0.01754272162791226 0.11671159917143287
v 0.13295343649073033 0.01722387395651781 0.1207253322722312
v 0.13295343649073033 0.01722387395651781 0.1207253322722312
v 0.13175365310854836 0.015046995877657787 0.11626812533445102
v 0.1315725007561941 0.01679417499201641 0.11616129854715046
v 0.13175365310854836 0.015046995877657787 0.11626812533445102
v 0.13295343649073033 0.01722387395651781 0.1207253322722312
v 0.13314528525472547 0.015405869262012928 0.12085120202918626
v 0.13314528525472547 0.015405869262012928 0.12085120202918626
v 0.13333484520025252 0.013376342455105328 0.12097554590716258
v 0.13190628678279026 0.013435259503496999 0.1163678720432903
v 0.13333484520025252 0.013376342455105328 0.12097554590716258
v 0.13344206871608755 0.01207881794126675 0.12104594233384608
v 0.13203755815133 0.01187187441947457 0.1164552591324019
v 0.13203755815133 0.01187187441947457 0.1164552591324019
v 0.13190628678279026 0.013435259503496999 0.1163678720432903
v 0.13333484520025252 0.013376342455105328 0.12097554590716258
v 0.13362297692780523 0.009501241181570363 0.12116444209533389
v 0.13220740374045192 0.009497371171010571 0.11656238346610331
v 0.13215982683389527 0.010221852788063202 0.11653182773955434
v 0.13215982683389527 0.010221852788063202 0.11653182773955434
v 0.13349747338180507 0.01134800392645241 0.12108224299474996
v 0.13362297692780523 0.009501241181570363 0.12116444209533389
v 0.13215982683389527 0.010221852788063202 0.11653182773955434
v 0.13203755815133 0.01187187441947457 0.1164552591324019
v 0.13349747338180507 0.01134800392645241 0.12108224299474996
v 0.13362297692780523 0.009501241181570363 0.12116444209533389
v 0.13372769800211515 0.007591100099632597 0.12123335841940802
v 0.13227701433946137 0.00833259240627493 0.11660707646139018
v 0.13372769800211515 0.007591100099632597 0.12123335841940802
v 0.13238037738148023 0.006190284069352292 0.11667291813932218
v 0.13227701433946137 0.00833259240627493 0.11660707646139018
v 0.13372769800211515 0.007591100099632597 0.12123335841940802
v 0.13382477442274165 0.005264112245728925 0.12129713253132385
v 0.13238037738148023 0.006190284069352292 0.11667291813932218
v 0.13382477442274165 0.005264112245728925 0.12129713253132385
v 0.13243181476185306 0.00476562427268068 0.11670559483765158
v 0.13238037738148023 0.006190284069352292 0.11667291813932218
v 0.13382477442274165 0.005264112245728925 0.12129713253132385
v 0.13245436725315862 0.00398940987462168 0.11671987706489245
v 0.13243181476185306 0.00476562427268068 0.11670559483765158
v 0.13245436725315862 0.00398940987462168 0.11671987706489245
v 0.13382477442274165 0.005264112245728925 0.12129713253132385
v 0.13387613550916555 0.003501153158544379 0.12133112911496985
v 0.13390968958790772 0.0012059130049325156 0.12135292629618094
v 0.1325067049021289 0.0005459524056348683 0.11675300389752058
v 0.13249393329507697 0.0019974559302164685 0.1167448404449844
v 0.1325067049021289 0.0005459524056348683 0.11675300389752058
v 0.13390968958790772 0.0012059130049325156 0.12135292629618094
v 0.1339143892951622 -2.2712197646680355e-12 0.12135601620111286
v 0.13249393329507697 0.0019974559302164685 0.1167448404449844
v 0.13387613550916555 0.003501153158544379 0.12133112911496985
v 0.13390968958790772 0.0012059130049325156 0.12135292629618094
v 0.13387613550916555 0.003501153158544379 0.12133112911496985
v 0.13249393329507697 0.0019974559302164685 0.1167448404449844
v 0.13245436725315862 0.00398940987462168 0.11671987706489245
v 0.13362297692780523 0.009501241181570363 0.12116444209533389
v 0.13227701433946137 0.00833259240627493 0.11660707646139018
v 0.13220740374045192 0.009497371171010571 0.11656238346610331
v 0.13344206871608755 0.01207881794126675 0.12104594233384608
v 0.13349747338180507 0.01134800392645241 0.12108224299474996
v 0.13203755815133 0.01187187441947457 0.1164552591324019
v 0.13190628678279026 0.013435259503496999 0.1163678720432903
v 0.13175365310854836 0.015046995877657787 0.11626812533445102
v 0.13314528525472547 0.015405869262012928 0.12085120202918626
v 0.12958547063251835 -0.0157709300856268 0.12082700158858367
v 0.12958547063251835 -0.01947609421730112 0.120548765186208
v 0.13281085835895823 -0.018447583121086186 0.1206318416672047
v 0.12958547063251835 -0.01947609421730112 0.120548765186208
v 0.13268421040372402 -0.01947500702852878 0.12054878807439268
v 0.13281085835895823 -0.018447583121086186 0.1206318416672047
v 0.13281085835895823 -0.018447583121086186 0.1206318416672047
v 0.13306989157438665 -0.01615415268378495 0.12080203057909683
v 0.12958547063251835 -0.0157709300856268 0.12082700158858367
v 0.12958547063251835 -0.011832103337568456 0.12105841639449716
v 0.12958547063251835 -0.0157709300856268 0.12082700158858367
v 0.13324741233477155 -0.014348288263904552 0.1209181881163523
v 0.12958547063251835 -0.0157709300856268 0.12082700158858367
v 0.13306989157438665 -0.01615415268378495 0.12080203057909683
v 0.13324741233477155 -0.014348288263904552 0.1209181881163523
v 0.13324741233477155 -0.014348288263904552 0.1209181881163523
v 0.13344278587920755 -0.012066234208064075 0.12104634669177544
v 0.12958547063251835 -0.011832103337568456 0.12105841639449716
v 0.12958547063251835 -0.007889951127010852 0.12122376064063184
v 0.12958547063251835 -0.011832103337568456 0.12105841639449716
v 0.13357414880048601 -0.010252562056184411 0.12113257411286321
v 0.12958547063251835 -0.011832103337568456 0.12105841639449716
v 0.13344278587920755 -0.012066234208064075 0.12104634669177544
v 0.13357414880048601 -0.010252562056184411 0.12113257411286321
v 0.13357414880048601 -0.010252562056184411 0.12113257411286321
v 0.13370433679495086 -0.008071180726988425 0.12121821407054417
v 0.12958547063251835 -0.007889951127010852 0.12122376064063184
v 0.12958547063251835 -0.003945580669887927 0.12132298092122346
v 0.12958547063251835 -0.007889951127010852 0.12122376064063184
v 0.13379183069559097 -0.006155879789916663 0.12127548793801063
v 0.12958547063251835 -0.007889951127010852 0.12122376064063184
v 0.13370433679495086 -0.008071180726988425 0.12121821407054417
v 0.13379183069559097 -0.006155879789916663 0.12127548793801063
v 0.12958547063251835 -1.0104633590985358e-07 0.12135606197748222
v 0.12958547063251835 -0.003945580669887927 0.12132298092122346
v 0.13390076319588218 -0.0020539206049870196 0.12134705166211285
v 0.12958547063251835 -0.003945580669887927 0.12132298092122346
v 0.13385988489804213 -0.0041057116551243555 0.12132019619208728
v 0.13390076319588218 -0.0020539206049870196 0.12134705166211285
v 0.12958547063251835 0.003945378729341836 0.12132298855061835
v 0.12958547063251835 -1.0104633590985358e-07 0.12135606197748222
v 0.13390968958790772 0.0012059130049325156 0.12135292629618094
v 0.12958547063251835 -1.0104633590985358e-07 0.12135606197748222
v 0.1339143892951622 -2.2712197646680355e-12 0.12135601620111286
v 0.13390968958790772 0.0012059130049325156 0.12135292629618094
v 0.13390968958790772 0.0012059130049325156 0.12135292629618094
v 0.13387613550916555 0.003501153158544379 0.12133112911496985
v 0.12958547063251835 0.003945378729341836 0.12132298855061835
v 0.12958547063251835 0.007889749424883352 0.12122376827002673
v 0.12958547063251835 0.003945378729341836 0.12132298855061835
v 0.13382477442274165 0.005264112245728925 0.12129713253132385
v 0.12958547063251835 0.003945378729341836 0.12132298855061835
v 0.13387613550916555 0.003501153158544379 0.12133112911496985
v 0.13382477442274165 0.005264112245728925 0.12129713253132385
v 0.13382477442274165 0.005264112245728925 0.12129713253132385
v 0.13372769800211515 0.007591100099632597 0.12123335841940802
v 0.12958547063251835 0.007889749424883352 0.12122376827002673
v 0.12958547063251835 0.011831902112278136 0.12105843165328695
v 0.12958547063251835 0.007889749424883352 0.12122376827002673
v 0.13362297692780523 0.009501241181570363 0.12116444209533389
v 0.13362297692780523 0.009501241181570363 0.12116444209533389
v 0.13349747338180507 0.01134800392645241 0.12108224299474996
v 0.12958547063251835 0.011831902112278136 0.12105843165328695
v 0.12958547063251835 0.007889749424883352 0.12122376827002673
v 0.13372769800211515 0.007591100099632597 0.12123335841940802
v 0.13362297692780523 0.009501241181570363 0.12116444209533389
v 0.12958547063251835 0.01577072790666212 0.12082701684737346
v 0.12958547063251835 0.011831902112278136 0.12105843165328695
v 0.13333484520025252 0.013376342455105328 0.12097554590716258
v 0.12958547063251835 0.011831902112278136 0.12105843165328695
v 0.13344206871608755 0.01207881794126675 0.12104594233384608
v 0.13333484520025252 0.013376342455105328 0.12097554590716258
v 0.12958547063251835 0.019470066995335156 0.1205492382086914
v 0.12958547063251835 0.01577072790666212 0.12082701684737346
v 0.13295343649073033 0.01722387395651781 0.1207253322722312
v 0.12958547063251835 0.01577072790666212 0.12082701684737346
v 0.13314528525472547 0.015405869262012928 0.12085120202918626
v 0.13295343649073033 0.01722387395651781 0.1207253322722312
v 0.13295343649073033 0.01722387395651781 0.1207253322722312
v 0.13268486653168488 0.019470034570406858 0.12054920006171693
v 0.12958547063251835 0.019470066995335156 0.1205492382086914
v 0.13333484520025252 0.013376342455105328 0.12097554590716258
v 0.13314528525472547 0.015405869262012928 0.12085120202918626
v 0.12958547063251835 0.01577072790666212 0.12082701684737346
v 0.13349747338180507 0.01134800392645241 0.12108224299474996
v 0.13344206871608755 0.01207881794126675 0.12104594233384608
v 0.12958547063251835 0.011831902112278136 0.12105843165328695
v 0.13390076319588218 -0.0020539206049870196 0.12134705166211285
v 0.1339143892951622 -2.2712197646680355e-12 0.12135601620111286
v 0.12958547063251835 -1.0104633590985358e-07 0.12135606197748222
v 0.13379183069559097 -0.006155879789916663 0.12127548793801063
v 0.13385988489804213 -0.0041057116551243555 0.12132019619208728
v 0.12958547063251835 -0.003945580669887927 0.12132298092122346
v 0.12958547063251835 0.019470066995335156 0.1205492382086914
v 0.1326792207794636 0.0194706411073009 0.12053130913069138
v 0.13253169879980042 0.019421856849002328 0.12003506276923032
v 0.12958547063251835 0.019418881384993814 0.12002943990519371
v 0.13253169879980042 0.019421856849002328 0.12003506276923032
v 0.13167485671808699 0.01754272162791226 0.11671159917143287
v 0.12958547063251835 0.017468365545278974 0.11657348423567354
v 0.13167485671808699 0.01754272162791226 0.11671159917143287
v 0.1315725007561941 0.01679417499201641 0.11616129854715046
v 0.1315725007561941 0.01679417499201641 0.11616129854715046
v 0.12958547063251835 0.01670882113664396 0.11615668276323982
v 0.12958547063251835 0.017468365545278974 0.11657348423567354
v 0.12958547063251835 0.012454461689272445 0.11642288760986824
v 0.12958547063251835 0.01670882113664396 0.11615668276323982
v 0.13175365310854836 0.015046995877657787 0.11626812533445102
v 0.13175365310854836 0.015046995877657787 0.11626812533445102
v 0.13190628678279026 0.013435259503496999 0.1163678720432903
v 0.12958547063251835 0.012454461689272445 0.11642288760986824
v 0.12958547063251835 0.01670882113664396 0.11615668276323982
v 0.1315725007561941 0.01679417499201641 0.11616129854715046
v 0.13175365310854836 0.015046995877657787 0.11626812533445102
v 0.12958547063251835 0.008695084984832735 0.11659347325029484
v 0.13215982683389527 0.010221852788063202 0.11653182773955434
v 0.13220740374045192 0.009497371171010571 0.11656238346610331
v 0.13203755815133 0.01187187441947457 0.1164552591324019
v 0.12958547063251835 0.008695084984832735 0.11659347325029484
v 0.12958547063251835 0.012454461689272445 0.11642288760986824
v 0.13203755815133 0.01187187441947457 0.1164552591324019
v 0.13215982683389527 0.010221852788063202 0.11653182773955434
v 0.12958547063251835 0.008695084984832735 0.11659347325029484
v 0.12958547063251835 0.008695084984832735 0.11659347325029484
v 0.13227701433946137 0.00833259240627493 0.11660707646139018
v 0.13238037738148023 0.006190284069352292 0.11667291813932218
v 0.13238037738148023 0.006190284069352292 0.11667291813932218
v 0.12958547063251835 0.004765543687197116 0.11670553380249243
v 0.12958547063251835 0.008695084984832735 0.11659347325029484
v 0.12958547063251835 0.004765543687197116 0.11670553380249243
v 0.13245436725315862 0.00398940987462168 0.11671987706489245
v 0.13249393329507697 0.0019974559302164685 0.1167448404449844
v 0.13249393329507697 0.0019974559302164685 0.1167448404449844
v 0.12958547063251835 0.0007997892282803065 0.11675176030615292
v 0.12958547063251835 0.004765543687197116 0.11670553380249243
v 0.12958547063251835 0.004765543687197116 0.11670553380249243
v 0.13243181476185306 0.00476562427268068 0.11670559483765158
v 0.13245436725315862 0.00398940987462168 0.11671987706489245
v 0.12958547063251835 -0.0031603802751557775 0.11673224431401502
v 0.12958547063251835 0.0007997892282803065 0.11675176030615292
v 0.13250517902315018 -0.0007700369127764187 0.11675191289405079
v 0.12958547063251835 0.0007997892282803065 0.11675176030615292
v 0.1325067049021289 0.0005459524056348683 0.11675300389752058
v 0.13250517902315018 -0.0007700369127764187 0.11675191289405079
v 0.13250517902315018 -0.0007700369127764187 0.11675191289405079
v 0.1324778505306412 -0.0029670278051108223 0.11673470097917077
v 0.12958547063251835 -0.0031603802751557775 0.11673224431401502
v 0.12958547063251835 -0.006950370641861936 0.11665147953967109
v 0.12958547063251835 -0.0031603802751557775 0.11673224431401502
v 0.13243160113879604 -0.004772532689756859 0.1167054498791486
v 0.12958547063251835 -0.0031603802751557775 0.11673224431401502
v 0.1324778505306412 -0.0029670278051108223 0.11673470097917077
v 0.13243160113879604 -0.004772532689756859 0.1167054498791486
v 0.12958547063251835 -0.010579317595386106 0.11651585178664708
v 0.12958547063251835 -0.006950370641861936 0.11665147953967109
v 0.132261908137572 -0.008592135837486858 0.11659731846532123
v 0.12958547063251835 -0.006950370641861936 0.11665147953967109
v 0.1323551393431721 -0.00676715739921202 0.1166568582630711
v 0.132261908137572 -0.008592135837486858 0.11659731846532123
v 0.12958547063251835 -0.010579317595386106 0.11651585178664708
v 0.1321360841569863 -0.010564772154021407 0.11651656132037219
v 0.1319848848089844 -0.012528440116858497 0.11641893558331334
v 0.12958547063251835 -0.014180068689569336 0.11632304934829024
v 0.1319848848089844 -0.012528440116858497 0.11641893558331334
v 0.13180846268146418 -0.014483802529679513 0.11630408267258469
v 0.12958547063251835 -0.016601771189542758 0.11616171053447472
v 0.12958547063251835 -0.014180068689569336 0.11632304934829024
v 0.13158598952636602 -0.01664871294897452 0.11615836123011641
v 0.12958547063251835 -0.0174621094414662 0.11651849918667517
v 0.12958547063251835 -0.016601771189542758 0.11616171053447472
v 0.13158598952636602 -0.01664871294897452 0.11615836123011641
v 0.12958547063251835 -0.0174621094414662 0.11651849918667517
v 0.13158598952636602 -0.01664871294897452 0.11615836123011641
v 0.1316299500997431 -0.01747333991074962 0.11654993229363692
v 0.12958547063251835 -0.01936077019143778 0.11991559407459101
v 0.12958547063251835 -0.0174621094414662 0.11651849918667517
v 0.13235867938240276 -0.01905646796140803 0.11937112993740223
v 0.12958547063251835 -0.01936077019143778 0.11991559407459101
v 0.1324965425481306 -0.019356997455662883 0.11990893361284888
v 0.13268421040372402 -0.01947500702852878 0.12054878807439268
v 0.12958547063251835 -0.01947609421730112 0.120548765186208
v 0.12958547063251835 -0.01936077019143778 0.11991559407459101
v 0.13268421040372402 -0.01947500702852878 0.12054878807439268
v 0.13235867938240276 -0.01905646796140803 0.11937112993740223
v 0.1324965425481306 -0.019356997455662883 0.11990893361284888
v 0.12958547063251835 -0.01936077019143778 0.11991559407459101
v 0.1316299500997431 -0.01747333991074962 0.11654993229363692
v 0.13235867938240276 -0.01905646796140803 0.11937112993740223
v 0.12958547063251835 -0.0174621094414662 0.11651849918667517
v 0.13180846268146418 -0.014483802529679513 0.11630408267258469
v 0.13158598952636602 -0.01664871294897452 0.11615836123011641
v 0.12958547063251835 -0.014180068689569336 0.11632304934829024
v 0.1319848848089844 -0.012528440116858497 0.11641893558331334
v 0.12958547063251835 -0.014180068689569336 0.11632304934829024
v 0.12958547063251835 -0.010579317595386106 0.11651585178664708
v 0.132261908137572 -0.008592135837486858 0.11659731846532123
v 0.1321360841569863 -0.010564772154021407 0.11651656132037219
v 0.12958547063251835 -0.010579317595386106 0.11651585178664708
v 0.13243160113879604 -0.004772532689756859 0.1167054498791486
v 0.1323551393431721 -0.00676715739921202 0.1166568582630711
v 0.12958547063251835 -0.006950370641861936 0.11665147953967109
v 0.13249393329507697 0.0019974559302164685 0.1167448404449844
v 0.1325067049021289 0.0005459524056348683 0.11675300389752058
v 0.12958547063251835 0.0007997892282803065 0.11675176030615292
v 0.13238037738148023 0.006190284069352292 0.11667291813932218
v 0.13243181476185306 0.00476562427268068 0.11670559483765158
v 0.12958547063251835 0.004765543687197116 0.11670553380249243
v 0.13220740374045192 0.009497371171010571 0.11656238346610331
v 0.13227701433946137 0.00833259240627493 0.11660707646139018
v 0.12958547063251835 0.008695084984832735 0.11659347325029484
v 0.13190628678279026 0.013435259503496999 0.1163678720432903
v 0.13203755815133 0.01187187441947457 0.1164552591324019
v 0.12958547063251835 0.012454461689272445 0.11642288760986824
v 0.13167485671808699 0.01754272162791226 0.11671159917143287
v 0.12958547063251835 0.017468365545278974 0.11657348423567354
v 0.12958547063251835 0.019418881384993814 0.12002943990519371
v 0.13253169879980042 0.019421856849002328 0.12003506276923032
v 0.12958547063251835 0.019418881384993814 0.12002943990519371
v 0.12958547063251835 0.019470066995335156 0.1205492382086914
v 0.1326792207794636 0.0194706411073009 0.12053130913069138
v 0.12958547063251835 0.019470066995335156 0.1205492382086914
v 0.13268486653168488 0.019470034570406858 0.12054920006171693
v 0.12958547063251835 0.019418881384993814 0.12002943990519371
v 0.12958547063251835 0.018847474039738188 0.11593185212511953
v 0.12958547063251835 0.020887475052160376 0.11963146014996257
v 0.12958547063251835 0.019418881384993814 0.12002943990519371
v 0.12958547063251835 0.017468365545278974 0.11657348423567354
v 0.12958547063251835 0.018847474039738188 0.11593185212511953
v 0.12958547063251835 0.01670882113664396 0.11615668276323982
v 0.12958547063251835 0.01681846889270644 0.11466467066844727
v 0.12958547063251835 0.017850369347602868 0.11500574276716685
v 0.12958547063251835 0.018434845846311276 0.11543949675505422
v 0.12958547063251835 0.018847474039738188 0.11593185212511953
v 0.12958547063251835 0.017468365545278974 0.11657348423567354
v 0.12958547063251835 -0.01947609421730112 0.120548765186208
v 0.12958547063251835 -0.020339995396639887 0.1219811001541426
v 0.129585424856149 -0.021000290914452435 0.12118169978658327
v 0.12958547063251835 -0.0174621094414662 0.11651849918667517
v 0.12958547063251835 -0.01936077019143778 0.11991559407459101
v 0.12958547063251835 -0.018634634903041958 0.11554357696019307
v 0.12958547063251835 -0.020668818501857755 0.11918144029216199
v 0.12958547063251835 -0.018634634903041958 0.11554357696019307
v 0.12958547063251835 -0.01936077019143778 0.11991559407459101
v 0.12958547063251835 0.017850369347602868 0.11500574276716685
v 0.12958547063251835 0.017468365545278974 0.11657348423567354
v 0.12958547063251835 0.01670882113664396 0.11615668276323982
v 0.12958547063251835 -0.00719118343177283 0.11514356778592022
v 0.12958547063251835 -0.006950370641861936 0.11665147953967109
v 0.12958547063251835 -0.010579317595386106 0.11651585178664708
v 0.12958547063251835 0.019470066995335156 0.1205492382086914
v 0.12958547063251835 0.02081456473985943 0.12155192380319141
v 0.12958547063251835 0.020523362180862037 0.12182515532251686
v 0.12958547063251835 -0.020917092363137435 0.11989158436886077
v 0.12958547063251835 -0.020668818501857755 0.11918144029216199
v 0.12958547063251835 -0.01936077019143778 0.11991559407459101
v 0.12958547063251835 -0.0174621094414662 0.11651849918667517
v 0.12958547063251835 -0.018634634903041958 0.11554357696019307
v 0.12958547063251835 -0.01687842639982673 0.11463918086010766
v 0.12958547063251835 0.012454461689272445 0.11642288760986824
v 0.12958547063251835 0.01114700656430545 0.11498764584247917
v 0.12958547063251835 0.01681846889270644 0.11466467066844727
v 0.12958547063251835 0.008695084984832735 0.11659347325029484
v 0.12958547063251835 0.007833136453749556 0.11512296079031253
v 0.12958547063251835 0.01114700656430545 0.11498764584247917
v 0.12958547063251835 0.004765543687197116 0.11670553380249243
v 0.12958547063251835 0.00390724701366349 0.11522097562651096
v 0.12958547063251835 0.007833136453749556 0.11512296079031253
v 0.12958547063251835 -0.014180068689569336 0.11632304934829024
v 0.12958547063251835 -0.014840823878424225 0.11477793666503805
v 0.12958547063251835 -0.01109040789828708 0.11499026272492768
v 0.12958547063251835 -0.016601771189542758 0.11616171053447472
v 0.12958547063251835 -0.01687842639982673 0.11463918086010766
v 0.12958547063251835 -0.014840823878424225 0.11477793666503805
v 0.129585424856149 -0.021000290914452435 0.12118169978658327
v 0.12958547063251835 -0.020917092363137435 0.11989158436886077
v 0.12958547063251835 -0.01947609421730112 0.120548765186208
v 0.12958547063251835 0.01681846889270644 0.11466467066844727
v 0.12958547063251835 0.01670882113664396 0.11615668276323982
v 0.12958547063251835 0.012454461689272445 0.11642288760986824
v 0.12958547063251835 0.007833136453749556 0.11512296079031253
v 0.12958547063251835 0.008695084984832735 0.11659347325029484
v 0.12958547063251835 0.004765543687197116 0.11670553380249243
v 0.12958547063251835 -0.01109040789828708 0.11499026272492768
v 0.12958547063251835 -0.010579317595386106 0.11651585178664708
v 0.12958547063251835 -0.014180068689569336 0.11632304934829024
v 0.12958547063251835 0.01114700656430545 0.11498764584247917
v 0.12958547063251835 0.012454461689272445 0.11642288760986824
v 0.12958547063251835 0.008695084984832735 0.11659347325029484
v 0.12958547063251835 -0.0031603802751557775 0.11673224431401502
v 0.12958547063251835 -0.0034368449889859987 0.11522826169863437
v 0.12958547063251835 -2.4955095045929576e-05 0.11525307249082845
v 0.12958547063251835 -0.006950370641861936 0.11665147953967109
v 0.12958547063251835 -0.00719118343177283 0.11514356778592022
v 0.12958547063251835 -0.0034368449889859987 0.11522826169863437
v 0.12958547063251835 -0.014840823878424225 0.11477793666503805
v 0.12958547063251835 -0.014180068689569336 0.11632304934829024
v 0.12958547063251835 -0.016601771189542758 0.11616171053447472
v 0.12958547063251835 0.0007997892282803065 0.11675176030615292
v 0.12958547063251835 -2.4955095045929576e-05 0.11525307249082845
v 0.12958547063251835 0.00390724701366349 0.11522097562651096
v 0.12958547063251835 -0.0034368449889859987 0.11522826169863437
v 0.12958547063251835 -0.0031603802751557775 0.11673224431401502
v 0.12958547063251835 -0.006950370641861936 0.11665147953967109
v 0.12958547063251835 -0.010579317595386106 0.11651585178664708
v 0.12958547063251835 -0.01109040789828708 0.11499026272492768
v 0.12958547063251835 -0.00719118343177283 0.11514356778592022
v 0.12958547063251835 0.017468365545278974 0.11657348423567354
v 0.12958547063251835 0.017850369347602868 0.11500574276716685
v 0.12958547063251835 0.018434845846311276 0.11543949675505422
v 0.12958547063251835 0.019470066995335156 0.1205492382086914
v 0.12958547063251835 0.020523362180862037 0.12182515532251686
v 0.12958547063251835 0.020160401348192636 0.12199765594106177
v 0.12958547063251835 -2.4955095045929576e-05 0.11525307249082845
v 0.12958547063251835 0.0007997892282803065 0.11675176030615292
v 0.12958547063251835 -0.0031603802751557775 0.11673224431401502
v 0.12958547063251835 0.02101522545495671 0.12101596644130902
v 0.12958547063251835 0.02081456473985943 0.12155192380319141
v 0.12958547063251835 0.019470066995335156 0.1205492382086914
v 0.12958547063251835 -0.01687842639982673 0.11463918086010766
v 0.12958547063251835 -0.016601771189542758 0.11616171053447472
v 0.12958547063251835 -0.0174621094414662 0.11651849918667517
v 0.12958547063251835 -0.003945580669887927 0.12132298092122346
v 0.12958547063251835 -0.003053687717521625 0.12283637058050795
v 0.12958547063251835 -0.006977933261426705 0.12275321780556231
v 0.12958547063251835 -0.01090203527734035 0.12260497103338425
v 0.12958547063251835 -0.011832103337568456 0.12105841639449716
v 0.12958547063251835 -0.007889951127010852 0.12122376064063184
v 0.12958547063251835 -0.01947609421730112 0.120548765186208
v 0.12958547063251835 -0.01874158566800954 0.12211333282643894
v 0.12958547063251835 -0.020339995396639887 0.1219811001541426
v 0.12958547063251835 -0.01874158566800954 0.12211333282643894
v 0.12958547063251835 -0.01947609421730112 0.120548765186208
v 0.12958547063251835 -0.0157709300856268 0.12082700158858367
v 0.12958547063251835 0.00390724701366349 0.11522097562651096
v 0.12958547063251835 0.004765543687197116 0.11670553380249243
v 0.12958547063251835 0.0007997892282803065 0.11675176030615292
v 0.12958547063251835 0.007889749424883352 0.12122376827002673
v 0.12958547063251835 0.008725522455760859 0.12269524203376564
v 0.12958547063251835 0.004799366702109287 0.12280741702688663
v 0.12958547063251835 0.003945378729341836 0.12132298855061835
v 0.12958547063251835 0.004799366702109287 0.12280741702688663
v 0.12958547063251835 0.0008722434458177664 0.12285445987580074
v 0.12958547063251835 -1.0104633590985358e-07 0.12135606197748222
v 0.12958547063251835 0.0008722434458177664 0.12285445987580074
v 0.12958547063251835 -0.003053687717521625 0.12283637058050795
v 0.12958547063251835 -0.007889951127010852 0.12122376064063184
v 0.12958547063251835 -0.006977933261426705 0.12275321780556231
v 0.12958547063251835 -0.01090203527734035 0.12260497103338425
v 0.12958547063251835 -0.014823972452452927 0.12239164552276355
v 0.12958547063251835 -0.0157709300856268 0.12082700158858367
v 0.12958547063251835 -0.011832103337568456 0.12105841639449716
v 0.12958547063251835 -0.0157709300856268 0.12082700158858367
v 0.12958547063251835 -0.014823972452452927 0.12239164552276355
v 0.12958547063251835 -0.01874158566800954 0.12211333282643894
v 0.12958547063251835 0.019470066995335156 0.1205492382086914
v 0.12958547063251835 0.020160401348192636 0.12199765594106177
v 0.12958547063251835 0.01656641657360569 0.12227592286101702
v 0.12958547063251835 0.011831902112278136 0.12105843165328695
v 0.12958547063251835 0.012648552541691949 0.12251802644917648
v 0.12958547063251835 0.008725522455760859 0.12269524203376564
v 0.12958547063251835 0.0008722434458177664 0.12285445987580074
v 0.12958547063251835 -1.0104633590985358e-07 0.12135606197748222
v 0.12958547063251835 0.003945378729341836 0.12132298855061835
v 0.12958547063251835 -0.006977933261426705 0.12275321780556231
v 0.12958547063251835 -0.007889951127010852 0.12122376064063184
v 0.12958547063251835 -0.003945580669887927 0.12132298092122346
v 0.12958547063251835 -0.020917092363137435 0.11989158436886077
v 0.12958547063251835 -0.01936077019143778 0.11991559407459101
v 0.12958547063251835 -0.01947609421730112 0.120548765186208
v 0.12958547063251835 0.019470066995335156 0.1205492382086914
v 0.12958547063251835 0.020887475052160376 0.11963146014996257
v 0.12958547063251835 0.02101522545495671 0.12101596644130902
v 0.12958547063251835 0.020887475052160376 0.11963146014996257
v 0.12958547063251835 0.019470066995335156 0.1205492382086914
v 0.12958547063251835 0.019418881384993814 0.12002943990519371
v 0.12958547063251835 0.01577072790666212 0.12082701684737346
v 0.12958547063251835 0.01656641657360569 0.12227592286101702
v 0.12958547063251835 0.012648552541691949 0.12251802644917648
v 0.12958547063251835 0.004799366702109287 0.12280741702688663
v 0.12958547063251835 0.003945378729341836 0.12132298855061835
v 0.12958547063251835 0.007889749424883352 0.12122376827002673
v 0.12958547063251835 -0.011832103337568456 0.12105841639449716
v 0.12958547063251835 -0.01090203527734035 0.12260497103338425
v 0.12958547063251835 -0.014823972452452927 0.12239164552276355
v 0.12958547063251835 0.012648552541691949 0.12251802644917648
v 0.12958547063251835 0.011831902112278136 0.12105843165328695
v 0.12958547063251835 0.01577072790666212 0.12082701684737346
v 0.12958547063251835 -0.003053687717521625 0.12283637058050795
v 0.12958547063251835 -0.003945580669887927 0.12132298092122346
v 0.12958547063251835 -1.0104633590985358e-07 0.12135606197748222
v 0.12958547063251835 0.008725522455760859 0.12269524203376564
v 0.12958547063251835 0.007889749424883352 0.12122376827002673
v 0.12958547063251835 0.011831902112278136 0.12105843165328695
v 0.12958547063251835 0.01656641657360569 0.12227592286101702
v 0.12958547063251835 0.01577072790666212 0.12082701684737346
v 0.12958547063251835 0.019470066995335156 0.1205492382086914
v 0.12758546290812856 0.01656641657360569 0.12227592286101702
v 0.12958547063251835 0.01656641657360569 0.12227592286101702
v 0.12958547063251835 0.020160401348192636 0.12199765594106177
v 0.12758546290812856 0.012648552541691949 0.12251802644917648
v 0.12958547063251835 0.012648552541691949 0.12251802644917648
v 0.12958547063251835 0.01656641657360569 0.12227592286101702
v 0.12758546290812856 0.008725522455760859 0.12269524203376564
v 0.12958547063251835 0.008725522455760859 0.12269524203376564
v 0.12958547063251835 0.012648552541691949 0.12251802644917648
v 0.12758546290812856 0.004799366702109287 0.12280741702688663
v 0.12958547063251835 0.004799366702109287 0.12280741702688663
v 0.12958547063251835 0.008725522455760859 0.12269524203376564
v 0.12758546290812856 0.0008722434458177664 0.12285445987580074
v 0.12958547063251835 0.0008722434458177664 0.12285445987580074
v 0.12958547063251835 0.004799366702109287 0.12280741702688663
v 0.12758546290812856 -0.003053687717521625 0.12283637058050795
v 0.12958547063251835 -0.003053687717521625 0.12283637058050795
v 0.12958547063251835 0.0008722434458177664 0.12285445987580074
v 0.12758546290812856 -0.006977933261426705 0.12275321780556231
v 0.12958547063251835 -0.006977933261426705 0.12275321780556231
v 0.12958547063251835 -0.003053687717521625 0.12283637058050795
v 0.12758546290812856 -0.01090203527734035 0.12260497103338425
v 0.12958547063251835 -0.01090203527734035 0.12260497103338425
v 0.12958547063251835 -0.006977933261426705 0.12275321780556231
v 0.12758546290812856 -0.014823972452452927 0.12239164552276355
v 0.12958547063251835 -0.014823972452452927 0.12239164552276355
v 0.12958547063251835 -0.01090203527734035 0.12260497103338425
v 0.12758546290812856 -0.01874158566800954 0.12211333282643894
v 0.12958547063251835 -0.01874158566800954 0.12211333282643894
v 0.12958547063251835 -0.014823972452452927 0.12239164552276355
v 0.12758546290812856 -0.020349368108266708 0.12198080260774175
v 0.12958547063251835 -0.020339995396639887 0.1219811001541426
v 0.12958547063251835 -0.01874158566800954 0.12211333282643894
v 0.12958547063251835 -0.01874158566800954 0.12211333282643894
v 0.12758546290812856 -0.01874158566800954 0.12211333282643894
v 0.12758546290812856 -0.020349368108266708 0.12198080260774175
v 0.12958547063251835 -0.014823972452452927 0.12239164552276355
v 0.12758546290812856 -0.014823972452452927 0.12239164552276355
v 0.12758546290812856 -0.01874158566800954 0.12211333282643894
v 0.12958547063251835 -0.01090203527734035 0.12260497103338425
v 0.12758546290812856 -0.01090203527734035 0.12260497103338425
v 0.12758546290812856 -0.014823972452452927 0.12239164552276355
v 0.12958547063251835 -0.006977933261426705 0.12275321780556231
v 0.12758546290812856 -0.006977933261426705 0.12275321780556231
v 0.12758546290812856 -0.01090203527734035 0.12260497103338425
v 0.12958547063251835 -0.003053687717521625 0.12283637058050795
v 0.12758546290812856 -0.003053687717521625 0.12283637058050795
v 0.12758546290812856 -0.006977933261426705 0.12275321780556231
v 0.12958547063251835 0.0008722434458177664 0.12285445987580074
v 0.12758546290812856 0.0008722434458177664 0.12285445987580074
v 0.12758546290812856 -0.003053687717521625 0.12283637058050795
v 0.12958547063251835 0.004799366702109287 0.12280741702688663
v 0.12758546290812856 0.004799366702109287 0.12280741702688663
v 0.12758546290812856 0.0008722434458177664 0.12285445987580074
v 0.12958547063251835 0.008725522455760859 0.12269524203376564
v 0.12758546290812856 0.008725522455760859 0.12269524203376564
v 0.12758546290812856 0.004799366702109287 0.12280741702688663
v 0.12958547063251835 0.012648552541691949 0.12251802644917648
v 0.12758546290812856 0.012648552541691949 0.12251802644917648
v 0.12758546290812856 0.008725522455760859 0.12269524203376564
v 0.12958547063251835 0.01656641657360569 0.12227592286101702
v 0.12758546290812856 0.01656641657360569 0.12227592286101702
v 0.12758546290812856 0.012648552541691949 0.12251802644917648
v 0.12958547063251835 0.020160401348192636 0.12199765594106177
v 0.12758547053752345 0.020165211681673068 0.12199727447131709
v 0.12758546290812856 0.01656641657360569 0.12227592286101702
v 0.12758546290812856 -0.020917769471934244 0.1198976573671961
v 0.12958547063251835 -0.020917092363137435 0.11989158436886077
v 0.129585424856149 -0.021000290914452435 0.12118169978658327
v 0.12758546290812856 -0.020671725301312227 0.11918626206973476
v 0.12958547063251835 -0.020668818501857755 0.11918144029216199
v 0.12958547063251835 -0.020917092363137435 0.11989158436886077
v 0.12758546290812856 -0.020671725301312227 0.11918626206973476
v 0.12958547063251835 -0.018634634903041958 0.11554357696019307
v 0.12958547063251835 -0.020668818501857755 0.11918144029216199
v 0.12758546290812856 -0.017505408164836256 0.11484199306456494
v 0.12958547063251835 -0.01687842639982673 0.11463918086010766
v 0.12958547063251835 -0.018634634903041958 0.11554357696019307
v 0.12758546290812856 -0.014840823878424225 0.11477793666503805
v 0.12958547063251835 -0.014840823878424225 0.11477793666503805
v 0.12958547063251835 -0.01687842639982673 0.11463918086010766
v 0.12758546290812856 -0.01109040789828708 0.11499026272492768
v 0.12958547063251835 -0.01109040789828708 0.11499026272492768
v 0.12958547063251835 -0.014840823878424225 0.11477793666503805
v 0.12758546290812856 -0.00719118343177283 0.11514356778592022
v 0.12958547063251835 -0.00719118343177283 0.11514356778592022
v 0.12958547063251835 -0.01109040789828708 0.11499026272492768
v 0.12758546290812856 -0.0034368449889859987 0.11522826169863437
v 0.12958547063251835 -0.0034368449889859987 0.11522826169863437
v 0.12958547063251835 -0.00719118343177283 0.11514356778592022
v 0.12758546290812856 -2.4955095045929576e-05 0.11525307249082845
v 0.12958547063251835 -2.4955095045929576e-05 0.11525307249082845
v 0.12958547063251835 -0.0034368449889859987 0.11522826169863437
v 0.12758546290812856 0.00390724701366349 0.11522097562651096
v 0.12958547063251835 0.00390724701366349 0.11522097562651096
v 0.12958547063251835 -2.4955095045929576e-05 0.11525307249082845
v 0.12958547063251835 0.007833136453749556 0.11512296079031253
v 0.12958547063251835 0.00390724701366349 0.11522097562651096
v 0.12758546290812856 0.00390724701366349 0.11522097562651096
v 0.12758546290812856 0.01114700656430545 0.11498764584247917
v 0.12958547063251835 0.01114700656430545 0.11498764584247917
v 0.12958547063251835 0.007833136453749556 0.11512296079031253
v 0.12758546290812856 0.016770109973173186 0.11466760798548131
v 0.12958547063251835 0.01681846889270644 0.11466467066844727
v 0.12958547063251835 0.01114700656430545 0.11498764584247917
v 0.12958547063251835 0.017850369347602868 0.11500574276716685
v 0.12958547063251835 0.01681846889270644 0.11466467066844727
v 0.12758546290812856 0.01761065757474256 0.11489450618961777
v 0.12758546290812856 0.018143147376645796 0.11519675992711859
v 0.12958547063251835 0.018434845846311276 0.11543949675505422
v 0.12958547063251835 0.017850369347602868 0.11500574276716685
v 0.12758546290812856 0.01877638143077065 0.11580500580561809
v 0.12958547063251835 0.018847474039738188 0.11593185212511953
v 0.12958547063251835 0.018434845846311276 0.11543949675505422
v 0.12958547063251835 0.020887475052160376 0.11963146014996257
v 0.12958547063251835 0.018847474039738188 0.11593185212511953
v 0.12758546290812856 0.02088424781812037 0.11957896228369952
v 0.12758546290812856 0.02088424781812037 0.11957896228369952
v 0.12758546290812856 0.021005660101108825 0.12089600946539653
v 0.12958547063251835 0.02101522545495671 0.12101596644130902
v 0.12958547063251835 0.02101522545495671 0.12101596644130902
v 0.12958547063251835 0.020887475052160376 0.11963146014996257
v 0.12758546290812856 0.02088424781812037 0.11957896228369952
v 0.12958547063251835 0.018847474039738188 0.11593185212511953
v 0.12758546290812856 0.01877638143077065 0.11580500580561809
v 0.12758546290812856 0.02088424781812037 0.11957896228369952
v 0.12758546290812856 0.018143147376645796 0.11519675992711859
v 0.12758546290812856 0.01877638143077065 0.11580500580561809
v 0.12958547063251835 0.018434845846311276 0.11543949675505422
v 0.12958547063251835 0.017850369347602868 0.11500574276716685
v 0.12758546290812856 0.01761065757474256 0.11489450618961777
v 0.12758546290812856 0.018143147376645796 0.11519675992711859
v 0.12958547063251835 0.01681846889270644 0.11466467066844727
v 0.12758546290812856 0.016770109973173186 0.11466760798548131
v 0.12758546290812856 0.01761065757474256 0.11489450618961777
v 0.12958547063251835 0.01114700656430545 0.11498764584247917
v 0.12758546290812856 0.01114700656430545 0.11498764584247917
v 0.12758546290812856 0.016770109973173186 0.11466760798548131
v 0.12958547063251835 0.007833136453749556 0.11512296079031253
v 0.12758546290812856 0.007833136453749556 0.11512296079031253
v 0.12758546290812856 0.01114700656430545 0.11498764584247917
v 0.12758546290812856 0.00390724701366349 0.11522097562651096
v 0.12758546290812856 0.007833136453749556 0.11512296079031253
v 0.12958547063251835 0.007833136453749556 0.11512296079031253
v 0.12958547063251835 -2.4955095045929576e-05 0.11525307249082845
v 0.12758546290812856 -2.4955095045929576e-05 0.11525307249082845
v 0.12758546290812856 0.00390724701366349 0.11522097562651096
v 0.12958547063251835 -0.0034368449889859987 0.11522826169863437
v 0.12758546290812856 -0.0034368449889859987 0.11522826169863437
v 0.12758546290812856 -2.4955095045929576e-05 0.11525307249082845
v 0.12958547063251835 -0.00719118343177283 0.11514356778592022
v 0.12758546290812856 -0.00719118343177283 0.11514356778592022
v 0.12758546290812856 -0.0034368449889859987 0.11522826169863437
v 0.12958547063251835 -0.01109040789828708 0.11499026272492768
v 0.12758546290812856 -0.01109040789828708 0.11499026272492768
v 0.12758546290812856 -0.00719118343177283 0.11514356778592022
v 0.12958547063251835 -0.014840823878424225 0.11477793666503805
v 0.12758546290812856 -0.014840823878424225 0.11477793666503805
v 0.12758546290812856 -0.01109040789828708 0.11499026272492768
v 0.12958547063251835 -0.01687842639982673 0.11463918086010766
v 0.12758546290812856 -0.016602728678601908 0.11465730067298002
v 0.12758546290812856 -0.014840823878424225 0.11477793666503805
v 0.12958547063251835 -0.01687842639982673 0.11463918086010766
v 0.12758546290812856 -0.017505408164836256 0.11484199306456494
v 0.12758546290812856 -0.016602728678601908 0.11465730067298002
v 0.12758546290812856 -0.01859760563492574 0.11554505706280244
v 0.12758546290812856 -0.017505408164836256 0.11484199306456494
v 0.12958547063251835 -0.018634634903041958 0.11554357696019307
v 0.12958547063251835 -0.018634634903041958 0.11554357696019307
v 0.12758546290812856 -0.020671725301312227 0.11918626206973476
v 0.12758546290812856 -0.01859760563492574 0.11554505706280244
v 0.12958547063251835 -0.020917092363137435 0.11989158436886077
v 0.12758546290812856 -0.020917769471934244 0.1198976573671961
v 0.12758546290812856 -0.020671725301312227 0.11918626206973476
v 0.129585424856149 -0.021000290914452435 0.12118169978658327
v 0.12758547053752345 -0.020999894185917967 0.12120844081568544
v 0.12758546290812856 -0.020917769471934244 0.1198976573671961
v 0.12758546290812856 -0.017505408164836256 0.11484199306456494
v 0.12758546290812856 -0.01859760563492574 0.11554505706280244
v 0.12758546290812856 -0.014823972452452927 0.12239164552276355
v 0.12758546290812856 0.01877638143077065 0.11580500580561809
v 0.12758546290812856 0.018143147376645796 0.11519675992711859
v 0.12758546290812856 0.01656641657360569 0.12227592286101702
v 0.12758546290812856 -0.016602728678601908 0.11465730067298002
v 0.12758546290812856 -0.017505408164836256 0.11484199306456494
v 0.12758546290812856 -0.014823972452452927 0.12239164552276355
v 0.12758546290812856 0.018143147376645796 0.11519675992711859
v 0.12758546290812856 0.01761065757474256 0.11489450618961777
v 0.12758546290812856 0.01656641657360569 0.12227592286101702
v 0.12758546290812856 -0.020671725301312227 0.11918626206973476
v 0.12758546290812856 -0.020917769471934244 0.1198976573671961
v 0.12758546290812856 -0.014823972452452927 0.12239164552276355
v 0.12758546290812856 0.01761065757474256 0.11489450618961777
v 0.12758546290812856 0.016770109973173186 0.11466760798548131
v 0.12758546290812856 0.01656641657360569 0.12227592286101702
v 0.12758546290812856 0.020698431998137368 0.12167273527133199
v 0.12758546290812856 0.02094110206886768 0.12132147030103452
v 0.12758546290812856 0.021005660101108825 0.12089600946539653
v 0.12758546290812856 0.020533062956469283 0.12181847197259005
v 0.12758546290812856 0.020698431998137368 0.12167273527133199
v 0.12758546290812856 0.021005660101108825 0.12089600946539653
v 0.12758547053752345 0.020165211681673068 0.12199727447131709
v 0.12758546290812856 0.020533062956469283 0.12181847197259005
v 0.12758546290812856 0.021005660101108825 0.12089600946539653
v 0.12758546290812856 -0.020349368108266708 0.12198080260774175
v 0.12758546290812856 -0.01874158566800954 0.12211333282643894
v 0.12758547053752345 -0.020999894185917967 0.12120844081568544
v 0.12758546290812856 -0.01859760563492574 0.11554505706280244
v 0.12758546290812856 -0.020671725301312227 0.11918626206973476
v 0.12758546290812856 -0.014823972452452927 0.12239164552276355
v 0.12758546290812856 -0.014823972452452927 0.12239164552276355
v 0.12758546290812856 -0.020917769471934244 0.1198976573671961
v 0.12758547053752345 -0.020999894185917967 0.12120844081568544
v 0.12758546290812856 -0.01090203527734035 0.12260497103338425
v 0.12758546290812856 -0.006977933261426705 0.12275321780556231
v 0.12758546290812856 -0.00719118343177283 0.11514356778592022
v 0.12758546290812856 -0.014823972452452927 0.12239164552276355
v 0.12758546290812856 -0.01090203527734035 0.12260497103338425
v 0.12758546290812856 -0.01109040789828708 0.11499026272492768
v 0.12758546290812856 -0.00719118343177283 0.11514356778592022
v 0.12758546290812856 -0.01109040789828708 0.11499026272492768
v 0.12758546290812856 -0.01090203527734035 0.12260497103338425
v 0.12758546290812856 -0.006977933261426705 0.12275321780556231
v 0.12758546290812856 -0.003053687717521625 0.12283637058050795
v 0.12758546290812856 -0.0034368449889859987 0.11522826169863437
v 0.12758546290812856 -0.003053687717521625 0.12283637058050795
v 0.12758546290812856 0.0008722434458177664 0.12285445987580074
v 0.12758546290812856 -2.4955095045929576e-05 0.11525307249082845
v 0.12758546290812856 0.004799366702109287 0.12280741702688663
v 0.12758546290812856 0.008725522455760859 0.12269524203376564
v 0.12758546290812856 0.007833136453749556 0.11512296079031253
v 0.12758546290812856 0.008725522455760859 0.12269524203376564
v 0.12758546290812856 0.012648552541691949 0.12251802644917648
v 0.12758546290812856 0.01114700656430545 0.11498764584247917
v 0.12758546290812856 0.012648552541691949 0.12251802644917648
v 0.12758546290812856 0.01656641657360569 0.12227592286101702
v 0.12758546290812856 0.016770109973173186 0.11466760798548131
v 0.12758546290812856 0.02088424781812037 0.11957896228369952
v 0.12758546290812856 0.01656641657360569 0.12227592286101702
v 0.12758547053752345 0.020165211681673068 0.12199727447131709
v 0.12758546290812856 -0.014823972452452927 0.12239164552276355
v 0.12758546290812856 -0.014840823878424225 0.11477793666503805
v 0.12758546290812856 -0.016602728678601908 0.11465730067298002
v 0.12758546290812856 -2.4955095045929576e-05 0.11525307249082845
v 0.12758546290812856 -0.0034368449889859987 0.11522826169863437
v 0.12758546290812856 -0.003053687717521625 0.12283637058050795
v 0.12758546290812856 0.0008722434458177664 0.12285445987580074
v 0.12758546290812856 0.004799366702109287 0.12280741702688663
v 0.12758546290812856 0.00390724701366349 0.11522097562651096
v 0.12758546290812856 0.01114700656430545 0.11498764584247917
v 0.12758546290812856 0.007833136453749556 0.11512296079031253
v 0.12758546290812856 0.008725522455760859 0.12269524203376564
v 0.12758546290812856 0.02088424781812037 0.11957896228369952
v 0.12758546290812856 0.01877638143077065 0.11580500580561809
v 0.12758546290812856 0.01656641657360569 0.12227592286101702
v 0.12758546290812856 0.021005660101108825 0.12089600946539653
v 0.12758546290812856 0.02088424781812037 0.11957896228369952
v 0.12758547053752345 0.020165211681673068 0.12199727447131709
v 0.12758546290812856 -0.01109040789828708 0.11499026272492768
v 0.12758546290812856 -0.014840823878424225 0.11477793666503805
v 0.12758546290812856 -0.014823972452452927 0.12239164552276355
v 0.12758546290812856 0.00390724701366349 0.11522097562651096
v 0.12758546290812856 -2.4955095045929576e-05 0.11525307249082845
v 0.12758546290812856 0.0008722434458177664 0.12285445987580074
v 0.12758546290812856 0.016770109973173186 0.11466760798548131
v 0.12758546290812856 0.01114700656430545 0.11498764584247917
v 0.12758546290812856 0.012648552541691949 0.12251802644917648
v 0.12758546290812856 -0.0034368449889859987 0.11522826169863437
v 0.12758546290812856 -0.00719118343177283 0.11514356778592022
v 0.12758546290812856 -0.006977933261426705 0.12275321780556231
v 0.12758546290812856 0.007833136453749556 0.11512296079031253
v 0.12758546290812856 0.00390724701366349 0.11522097562651096
v 0.12758546290812856 0.004799366702109287 0.12280741702688663
v 0.12758546290812856 -0.01874158566800954 0.12211333282643894
v 0.12758546290812856 -0.014823972452452927 0.12239164552276355
v 0.12758547053752345 -0.020999894185917967 0.12120844081568544
v 0.129585424856149 -0.021000290914452435 0.12118169978658327
v 0.12758546290812856 -0.020349368108266708 0.12198080260774175
v 0.12758547053752345 -0.020999894185917967 0.12120844081568544
v 0.12758546290812856 -0.020349368108266708 0.12198080260774175
v 0.129585424856149 -0.021000290914452435 0.12118169978658327
v 0.12958547063251835 -0.020339995396639887 0.1219811001541426
v 0.12958547063251835 0.02101522545495671 0.12101596644130902
v 0.12758546290812856 0.021005660101108825 0.12089600946539653
v 0.12758546290812856 0.02094110206886768 0.12132147030103452
v 0.12958547063251835 0.02081456473985943 0.12155192380319141
v 0.12958547063251835 0.02101522545495671 0.12101596644130902
v 0.12758546290812856 0.02094110206886768 0.12132147030103452
v 0.12958547063251835 0.02081456473985943 0.12155192380319141
v 0.12758546290812856 0.02094110206886768 0.12132147030103452
v 0.12758546290812856 0.020698431998137368 0.12167273527133199
v 0.12958547063251835 0.02081456473985943 0.12155192380319141
v 0.12758546290812856 0.020698431998137368 0.12167273527133199
v 0.12758546290812856 0.020533062956469283 0.12181847197259005
v 0.12958547063251835 0.020523362180862037 0.12182515532251686
v 0.12758546290812856 0.020533062956469283 0.12181847197259005
v 0.12758547053752345 0.020165211681673068 0.12199727447131709
v 0.12758547053752345 0.020165211681673068 0.12199727447131709
v 0.12958547063251835 0.020160401348192636 0.12199765594106177
v 0.12958547063251835 0.020523362180862037 0.12182515532251686
v 0.12758546290812856 0.020533062956469283 0.12181847197259005
v 0.12958547063251835 0.020523362180862037 0.12182515532251686
v 0.12958547063251835 0.02081456473985943 0.12155192380319141
usemtl Gray
f 1 2 3
f 4 5 6
f 7 8 9
f 10 11 12
f 13 14 15
f 16 17 18
f 19 20 21
f 22 23 24
f 25 26 27
f 28 29 30
f 31 32 33
f 34 35 36
f 37 38 39
f 40 41 42
f 43 44 45
f 46 47 48
f 49 50 51
f 52 53 54
f 55 56 57
f 58 59 60
f 61 62 63
f 64 65 66
f 67 68 69
f 70 71 72
f 73 74 75
f 76 77 78
f 79 80 81
f 82 83 84
f 85 86 87
f 88 89 90
f 91 92 93
f 94 95 96
f 97 98 99
f 100 101 102
f 103 104 105
f 106 107 108
f 109 110 111
f 112 113 114
f 115 116 117
f 118 119 120
f 121 122 123
f 124 125 126
f 127 128 129
f 130 131 132
f 133 134 135
f 136 137 138
f 139 140 141
f 142 143 144
f 145 146 147
f 148 149 150
f 151 152 153
f 154 155 156
f 157 158 159
f 160 161 162
f 163 164 165
f 166 167 168
f 169 170 171
f 172 173 174
f 175 176 177
f 178 179 180
f 181 182 183
f 184 185 186
f 187 188 189
f 190 191 192
f 193 194 195
f 196 197 198
f 199 200 201
f 202 203 204
f 205 206 207
f 208 209 210
f 211 212 213
f 214 215 216
f 217 218 219
f 220 221 222
f 223 224 225
f 226 227 228
f 229 230 231
f 232 233 234
f 235 236 237
f 238 239 240
f 241 242 243
f 244 245 246
f 247 248 249
f 250 251 252
f 253 254 255
f 256 257 258
f 259 260 261
f 262 263 264
f 265 266 267
f 268 269 270
f 271 272 273
f 274 275 276
f 277 278 279
f 280 281 282
f 283 284 285
f 286 287 288
f 289 290 291
f 292 293 294
f 295 296 297
f 298 299 300
f 301 302 303
f 304 305 306
f 307 308 309
f 310 311 312
f 313 314 315
f 316 317 318
f 319 320 321
f 322 323 324
f 325 326 327
f 328 329 330
f 331 332 333
f 334 335 336
f 337 338 339
f 340 341 342
f 343 344 345
f 346 347 348
f 349 350 351
f 352 353 354
f 355 356 357
f 358 359 360
f 361 362 363
f 364 365 366
f 367 368 369
f 370 371 372
f 373 374 375
f 376 377 378
f 379 380 381
f 382 383 384
f 385 386 387
f 388 389 390
f 391 392 393
f 394 395 396
f 397 398 399
f 400 401 402
f 403 404 405
f 406 407 408
f 409 410 411
f 412 413 414
f 415 416 417
f 418 419 420
f 421 422 423
f 424 425 426
f 427 428 429
f 430 431 432
f 433 434 435
f 436 437 438
f 439 440 441
f 442 443 444
f 445 446 447
f 448 449 450
f 451 452 453
f 454 455 456
f 457 458 459
f 460 461 462
f 463 464 465
f 466 467 468
f 469 470 471
f 472 473 474
f 475 476 477
f 478 479 480
f 481 482 483
f 484 485 486
f 487 488 489
f 490 491 492
f 493 494 495
f 496 497 498
f 499 500 501
f 502 503 504
f 505 506 507
f 508 509 510
f 511 512 513
f 514 515 516
f 517 518 519
f 520 521 522
f 523 524 525
f 526 527 528
f 529 530 531
f 532 533 534
f 535 536 537
f 538 539 540
f 541 542 543
f 544 545 546
f 547 548 549
f 550 551 552
f 553 554 555
f 556 557 558
f 559 560 561
f 562 563 564
f 565 566 567
f 568 569 570
f 571 572 573
f 574 575 576
f 577 578 579
f 580 581 582
f 583 584 585
f 586 587 588
f 589 590 591
f 592 593 594
f 595 596 597
f 598 599 600
f 601 602 603
f 604 605 606
f 607 608 609
f 610 611 612
f 613 614 615
f 616 617 618
f 619 620 621
f 622 623 624
f 625 626 627
f 628 629 630
f 631 632 633
f 634 635 636
f 637 638 639
f 640 641 642
f 643 644 645
f 646 647 648
f 649 650 651
f 652 653 654
f 655 656 657
f 658 659 660
f 661 662 663
f 664 665 666
f 667 668 669
f 670 671 672
f 673 674 675
f 676 677 678
f 679 680 681
f 682 683 684
f 685 686 687
f 688 689 690
f 691 692 693
f 694 695 696
f 697 698 699
f 700 701 702
f 703 704 705
f 706 707 708
f 709 710 711
f 712 713 714
f 715 716 717
f 718 719 720
f 721 722 723
f 724 725 726
f 727 728 729
f 730 731 732
f 733 734 735
f 736 737 738
f 739 740 741
f 742 743 744
f 745 746 747
f 748 749 750
f 751 752 753
f 754 755 756
f 757 758 759
f 760 761 762
f 763 764 765
f 766 767 768
f 769 770 771
f 772 773 774
f 775 776 777
f 778 779 780
f 781 782 783
f 784 785 786
f 787 788 789
f 790 791 792
f 793 794 795
f 796 797 798
f 799 800 801
f 802 803 804
f 805 806 807
f 808 809 810
f 811 812 813
f 814 815 816
f 817 818 819
f 820 821 822
f 823 824 825
f 826 827 828
f 829 830 831
f 832 833 834
f 835 836 837
f 838 839 840
